<svg id="svg" version="1.1" xmlns="http://www.w3.org/2000/svg" xmlns:xlink="http://www.w3.org/1999/xlink" width="400" height="400" viewBox="0, 0, 400,400"><g id="svgg"><path id="path0" d="M17.500 200.000 L 17.500 252.031 76.406 251.952 C 108.805 251.908,135.313 251.799,135.313 251.711 C 135.313 251.622,134.981 251.025,134.576 250.384 C 133.737 249.054,130.031 241.836,129.476 240.450 C 129.274 239.945,128.878 238.969,128.598 238.281 C 125.564 230.848,123.641 222.755,122.286 211.719 C 121.984 209.263,121.911 197.113,122.183 194.596 C 122.335 193.185,122.544 191.132,122.646 190.032 C 122.748 188.933,122.881 187.949,122.941 187.845 C 123.001 187.741,123.145 186.742,123.260 185.625 C 123.780 180.607,127.216 167.352,129.214 162.656 C 129.434 162.141,130.075 160.523,130.639 159.063 C 131.204 157.602,132.187 155.281,132.825 153.906 C 134.673 149.925,135.312 148.484,135.312 148.300 C 135.312 148.206,108.805 148.092,76.406 148.048 L 17.500 147.969 17.500 200.000 M262.500 179.125 C 262.500 197.458,262.622 210.899,262.796 211.781 C 262.958 212.606,263.166 213.984,263.257 214.844 C 263.400 216.193,263.619 217.453,264.236 220.491 C 266.111 229.728,271.443 242.899,276.435 250.625 L 277.344 252.031 329.922 252.031 L 382.500 252.031 382.500 200.000 L 382.500 147.969 322.500 147.969 L 262.500 147.969 262.500 179.125 " stroke="none" fill="#cc1c24" fill-rule="evenodd"></path><path id="path1" d="M146.991 148.190 C 142.860 154.874,136.581 173.641,134.833 184.531 C 131.062 208.020,135.404 233.940,145.814 250.078 L 147.175 252.188 153.744 252.188 C 157.836 252.188,160.313 252.072,160.313 251.881 C 160.313 251.712,159.727 250.622,159.011 249.459 C 151.894 237.895,146.628 221.560,145.760 208.359 L 145.540 205.000 152.145 205.000 L 158.750 205.000 158.750 199.375 L 158.750 193.750 152.500 193.750 L 146.250 193.750 146.250 192.725 C 146.250 182.874,151.636 164.945,158.603 151.605 C 159.543 149.804,160.313 148.214,160.313 148.072 C 160.313 147.634,147.263 147.750,146.991 148.190 M167.644 148.203 C 167.563 148.418,167.532 171.867,167.576 200.313 L 167.656 252.031 173.672 252.116 L 179.688 252.201 179.688 200.007 L 179.688 147.813 173.740 147.813 C 169.270 147.813,167.756 147.910,167.644 148.203 M182.500 148.004 C 182.500 148.110,183.128 149.203,183.895 150.434 C 193.521 165.878,193.649 183.412,184.239 197.435 C 183.282 198.860,182.500 200.091,182.500 200.169 C 182.500 200.248,185.443 200.313,189.040 200.313 L 195.580 200.313 196.662 198.516 C 205.862 183.236,206.024 165.631,197.105 150.547 L 195.488 147.813 188.994 147.813 C 185.422 147.813,182.500 147.899,182.500 148.004 M219.030 151.172 C 212.754 164.493,208.796 178.334,207.345 192.031 C 206.857 196.637,206.635 244.571,207.078 249.803 L 207.280 252.201 213.250 252.116 L 219.219 252.031 219.299 228.516 L 219.379 205.000 225.783 205.000 L 232.188 205.000 232.188 199.375 L 232.188 193.750 225.891 193.750 L 219.595 193.750 219.805 190.771 C 220.554 180.106,224.803 166.095,231.274 152.947 C 232.464 150.529,233.438 148.384,233.438 148.182 C 233.438 147.910,231.747 147.813,227.025 147.813 L 220.613 147.813 219.030 151.172 M238.825 179.766 C 238.944 214.939,238.913 214.313,240.989 223.888 C 243.047 233.386,247.321 244.375,251.325 250.469 L 252.352 252.031 258.832 252.116 C 262.717 252.166,265.313 252.083,265.313 251.907 C 265.313 251.746,264.673 250.533,263.892 249.212 C 259.120 241.140,254.863 230.530,252.986 222.031 C 251.068 213.349,250.954 210.018,250.658 154.141 L 250.625 147.813 244.671 147.813 L 238.718 147.813 238.825 179.766 " stroke="none" fill="#040404" fill-rule="evenodd"></path><path id="path2" d="M47.109 148.047 C 63.309 148.092,89.816 148.092,106.016 148.047 C 122.215 148.002,108.961 147.966,76.563 147.966 C 44.164 147.966,30.910 148.002,47.109 148.047 M292.578 148.047 C 309.035 148.092,335.965 148.092,352.422 148.047 C 368.879 148.002,355.414 147.966,322.500 147.966 C 289.586 147.966,276.121 148.002,292.578 148.047 M121.954 207.344 C 121.957 208.031,122.021 208.276,122.096 207.887 C 122.171 207.498,122.168 206.936,122.090 206.637 C 122.011 206.338,121.950 206.656,121.954 207.344 M47.109 252.109 C 63.309 252.154,89.816 252.154,106.016 252.109 C 122.215 252.065,108.961 252.028,76.563 252.028 C 44.164 252.028,30.910 252.065,47.109 252.109 M303.697 252.109 C 318.191 252.154,341.816 252.154,356.197 252.109 C 370.578 252.064,358.719 252.028,329.844 252.028 C 300.969 252.028,289.203 252.064,303.697 252.109 " stroke="none" fill="#d01014" fill-rule="evenodd"></path><path id="path3" d="M47.109 148.047 C 63.309 148.092,89.816 148.092,106.016 148.047 C 122.215 148.002,108.961 147.966,76.563 147.966 C 44.164 147.966,30.910 148.002,47.109 148.047 M292.578 148.047 C 309.035 148.092,335.965 148.092,352.422 148.047 C 368.879 148.002,355.414 147.966,322.500 147.966 C 289.586 147.966,276.121 148.002,292.578 148.047 M121.954 207.344 C 121.957 208.031,122.021 208.276,122.096 207.887 C 122.171 207.498,122.168 206.936,122.090 206.637 C 122.011 206.338,121.950 206.656,121.954 207.344 M47.109 252.109 C 63.309 252.154,89.816 252.154,106.016 252.109 C 122.215 252.065,108.961 252.028,76.563 252.028 C 44.164 252.028,30.910 252.065,47.109 252.109 M303.697 252.109 C 318.191 252.154,341.816 252.154,356.197 252.109 C 370.578 252.064,358.719 252.028,329.844 252.028 C 300.969 252.028,289.203 252.064,303.697 252.109 " stroke="none" fill="#d01014" fill-rule="evenodd"></path><path id="path4" d="M47.109 148.047 C 63.309 148.092,89.816 148.092,106.016 148.047 C 122.215 148.002,108.961 147.966,76.563 147.966 C 44.164 147.966,30.910 148.002,47.109 148.047 M292.578 148.047 C 309.035 148.092,335.965 148.092,352.422 148.047 C 368.879 148.002,355.414 147.966,322.500 147.966 C 289.586 147.966,276.121 148.002,292.578 148.047 M121.954 207.344 C 121.957 208.031,122.021 208.276,122.096 207.887 C 122.171 207.498,122.168 206.936,122.090 206.637 C 122.011 206.338,121.950 206.656,121.954 207.344 M47.109 252.109 C 63.309 252.154,89.816 252.154,106.016 252.109 C 122.215 252.065,108.961 252.028,76.563 252.028 C 44.164 252.028,30.910 252.065,47.109 252.109 M303.697 252.109 C 318.191 252.154,341.816 252.154,356.197 252.109 C 370.578 252.064,358.719 252.028,329.844 252.028 C 300.969 252.028,289.203 252.064,303.697 252.109 " stroke="none" fill="#d01014" fill-rule="evenodd"></path></g></svg>