<?xml version="1.0" encoding="UTF-8" standalone="no"?>
<svg
   version="1.0"
   width="154.82487pt"
   height="86.58889pt"
   viewBox="0 0 154.82487 86.58889"
   preserveAspectRatio="xMidYMid meet"
   id="svg28"
   sodipodi:docname="IMS.svg"
   inkscape:version="1.1.2 (0a00cf5339, 2022-02-04)"
   xmlns:inkscape="http://www.inkscape.org/namespaces/inkscape"
   xmlns:sodipodi="http://sodipodi.sourceforge.net/DTD/sodipodi-0.dtd"
   xmlns="http://www.w3.org/2000/svg"
   xmlns:svg="http://www.w3.org/2000/svg">
  <defs
     id="defs32" />
  <sodipodi:namedview
     id="namedview30"
     pagecolor="#505050"
     bordercolor="#eeeeee"
     borderopacity="1"
     inkscape:pageshadow="0"
     inkscape:pageopacity="0"
     inkscape:pagecheckerboard="0"
     inkscape:document-units="pt"
     showgrid="false"
     fit-margin-top="0"
     fit-margin-left="0"
     fit-margin-right="0"
     fit-margin-bottom="0"
     inkscape:zoom="2.5754717"
     inkscape:cx="75.908425"
     inkscape:cy="57.85348"
     inkscape:window-width="1900"
     inkscape:window-height="1030"
     inkscape:window-x="30"
     inkscape:window-y="26"
     inkscape:window-maximized="0"
     inkscape:current-layer="svg28" />
  <g
     transform="matrix(0.1,0,0,-0.1,-39.586648,149.28889)"
     fill="#000000"
     stroke="none"
     id="g26">
    <path
       d="m 1168,1485 c -26,-6 -63,-25 -83,-41 -21,-16 -43,-33 -50,-38 -9,-7 -25,1 -53,22 -83,66 -158,78 -233,39 -76,-40 -85,-64 -92,-229 -3,-79 -3,-188 1,-242 7,-99 7,-100 36,-107 37,-10 83,-1 91,18 3,9 8,99 12,201 7,204 13,222 71,222 62,0 65,-10 74,-211 4,-101 12,-194 17,-206 20,-45 112,-37 131,12 5,14 12,90 15,168 9,220 15,237 80,237 55,0 62,-21 69,-215 4,-93 10,-180 13,-193 12,-49 106,-51 125,-3 5,14 10,107 10,206 1,216 -11,275 -67,324 -20,17 -39,31 -43,31 -4,0 -23,4 -42,9 -23,5 -53,4 -82,-4 z"
       id="path2" />
    <path
       d="m 1593,1490 c -90,-9 -145,-70 -147,-163 -1,-69 35,-134 89,-164 25,-13 74,-26 130,-33 50,-6 102,-16 117,-21 30,-12 42,-43 27,-71 -8,-15 -24,-18 -112,-19 -56,-1 -135,-4 -176,-8 -72,-6 -75,-7 -87,-37 -10,-24 -10,-36 -1,-55 11,-22 21,-25 102,-31 104,-8 322,0 347,14 10,5 28,28 40,51 27,54 30,172 5,211 -24,36 -47,46 -161,66 -122,22 -151,33 -166,60 -14,26 2,58 33,64 12,3 76,8 141,11 132,7 151,13 160,50 9,36 -9,63 -47,69 -49,8 -236,12 -294,6 z"
       id="path4" />
    <path
       d="m 432,1479 c -49,-19 -48,-100 2,-119 49,-18 96,11 96,60 0,49 -48,79 -98,59 z"
       id="path6" />
    <path
       d="m 434,1300 c -12,-5 -25,-13 -29,-19 -8,-14 -8,-351 0,-373 10,-25 58,-38 86,-24 21,10 25,21 31,91 9,103 -1,302 -16,314 -19,15 -50,20 -72,11 z"
       id="path8" />
    <path
       d="m 1110,791 c 0,-30 -1,-31 -42,-25 -59,8 -83,-11 -83,-66 0,-55 22,-71 92,-68 l 53,2 v 88 c 0,48 -4,90 -10,93 -6,4 -10,-6 -10,-24 z m -40,-41 c 54,-29 40,-100 -20,-100 -48,0 -66,54 -30,90 23,23 25,23 50,10 z"
       id="path10" />
    <path
       d="m 400,715 v -88 l 52,5 c 58,6 84,28 68,59 -6,10 -10,33 -10,53 0,41 -1,42 -62,51 l -48,7 z m 88,53 c 19,-19 -4,-48 -38,-48 -27,0 -30,3 -30,30 0,26 4,30 28,30 15,0 33,-5 40,-12 z m 0,-67 c 8,-5 12,-17 10,-27 -2,-14 -13,-20 -41,-22 -35,-3 -37,-2 -37,27 0,27 3,31 28,31 15,0 33,-4 40,-9 z"
       id="path12" />
    <path
       d="m 620,750 c -43,-43 -11,-120 50,-120 17,0 39,9 50,20 11,11 20,33 20,50 0,17 -9,39 -20,50 -11,11 -33,20 -50,20 -17,0 -39,-9 -50,-20 z m 78,-6 c 24,-17 30,-62 10,-82 -7,-7 -24,-12 -38,-12 -33,0 -50,17 -50,51 0,24 30,59 50,59 3,0 16,-7 28,-16 z"
       id="path14" />
    <path
       d="m 820,698 c 0,-39 4,-68 10,-68 6,0 10,24 10,54 0,59 13,78 48,69 13,-3 22,-1 22,6 0,7 -17,11 -45,9 l -45,-1 z"
       id="path16" />
    <path
       d="m 1229,760 c -33,-19 -30,-100 4,-122 17,-11 75,-10 82,2 4,6 -10,10 -34,10 -30,0 -43,5 -51,20 -10,19 -8,20 56,20 56,0 65,2 60,16 -3,9 -6,19 -6,24 0,33 -73,52 -111,30 z m 89,-34 c 3,-13 -5,-16 -42,-16 -50,0 -58,11 -25,34 25,17 62,7 67,-18 z"
       id="path18" />
    <path
       d="m 1453,762 c -22,-14 -33,-59 -22,-92 12,-33 30,-40 97,-37 l 42,2 v 65 65 l -53,2 c -28,1 -57,-1 -64,-5 z m 72,-27 c 31,-30 31,-40 1,-70 -26,-26 -51,-25 -73,3 -19,23 -16,49 7,72 26,26 36,25 65,-5 z"
       id="path20" />
    <path
       d="m 1650,718 c 0,-29 4,-59 8,-66 5,-7 29,-14 55,-17 l 47,-5 v 72 c 0,82 -6,85 -17,7 -8,-52 -10,-54 -38,-54 -29,0 -30,1 -33,58 -4,71 -22,76 -22,5 z"
       id="path22" />
    <path
       d="m 1840,765 c 0,-4 9,-19 20,-34 l 19,-28 -25,-36 c -29,-43 -16,-50 16,-10 l 22,28 20,-28 c 30,-41 42,-33 16,11 l -22,39 23,31 c 27,38 11,43 -17,7 -19,-24 -21,-25 -34,-7 -14,20 -38,37 -38,27 z"
       id="path24" />
  </g>
</svg>
