<?xml version="1.0" encoding="UTF-8" standalone="no"?>
<svg
   version="1.0"
   width="236.34247pt"
   height="116.65199pt"
   viewBox="0 0 236.34247 116.65199"
   preserveAspectRatio="xMidYMid meet"
   id="svg62"
   sodipodi:docname="joffre.svg"
   inkscape:version="1.1.2 (0a00cf5339, 2022-02-04)"
   xmlns:inkscape="http://www.inkscape.org/namespaces/inkscape"
   xmlns:sodipodi="http://sodipodi.sourceforge.net/DTD/sodipodi-0.dtd"
   xmlns="http://www.w3.org/2000/svg"
   xmlns:svg="http://www.w3.org/2000/svg">
  <defs
     id="defs66" />
  <sodipodi:namedview
     id="namedview64"
     pagecolor="#505050"
     bordercolor="#eeeeee"
     borderopacity="1"
     inkscape:pageshadow="0"
     inkscape:pageopacity="0"
     inkscape:pagecheckerboard="0"
     inkscape:document-units="pt"
     showgrid="false"
     inkscape:zoom="2.06375"
     inkscape:cx="135.91763"
     inkscape:cy="103.69473"
     inkscape:window-width="1900"
     inkscape:window-height="1030"
     inkscape:window-x="30"
     inkscape:window-y="26"
     inkscape:window-maximized="0"
     inkscape:current-layer="svg62" />
  <g
     transform="matrix(0.1,0,0,-0.1,-18.061119,120)"
     fill="#000000"
     stroke="none"
     id="g60">
    <path
       d="m 1160,1060 c 0,-86 5,-149 12,-165 17,-38 58,-55 128,-55 53,0 60,2 60,20 0,18 -7,20 -60,20 -95,0 -100,9 -100,180 0,133 -1,140 -20,140 -19,0 -20,-7 -20,-140 z"
       id="path2" />
    <path
       d="m 1962,1115 c -55,-37 -59,-44 -41,-62 15,-15 121,54 117,75 -5,26 -21,23 -76,-13 z"
       id="path4" />
    <path
       d="m 1402,970 c 3,-55 8,-74 27,-94 28,-30 68,-40 104,-27 l 27,11 v -50 c 0,-38 -5,-54 -22,-70 -24,-23 -32,-24 -57,-11 -21,12 -46,-2 -38,-22 7,-18 60,-29 91,-17 13,4 33,21 45,36 19,24 21,39 21,170 0,137 -1,144 -20,144 -18,0 -20,-7 -20,-60 0,-73 -24,-106 -68,-95 -40,9 -52,32 -52,97 0,52 -2,58 -21,58 -20,0 -21,-4 -17,-70 z"
       id="path6" />
    <path
       d="m 1703,1020 c -59,-36 -54,-134 10,-166 33,-18 88,-12 106,10 17,20 -2,29 -40,21 -41,-9 -79,16 -79,54 0,39 31,65 69,58 38,-8 62,16 32,32 -29,16 -62,13 -98,-9 z"
       id="path8" />
    <path
       d="m 1934,1022 c -12,-9 -27,-27 -33,-39 -48,-94 85,-190 155,-111 15,16 16,21 4,28 -8,5 -21,3 -34,-6 -22,-15 -56,-19 -56,-6 0,4 20,28 45,52 25,24 45,52 45,62 0,38 -87,52 -126,20 z m 65,-39 c -6,-10 -24,-28 -40,-41 -29,-23 -29,-23 -29,-3 0,27 34,61 60,61 17,0 18,-3 9,-17 z"
       id="path10" />
    <path
       d="m 2172,1024 c -12,-8 -29,-29 -38,-45 -21,-41 -4,-93 40,-120 40,-24 63,-24 105,2 31,18 32,22 18,36 -14,14 -17,14 -38,-1 -27,-18 -49,-21 -49,-5 0,6 18,28 40,50 22,22 40,48 40,59 0,38 -76,54 -118,24 z m 68,-32 c 0,-4 -16,-23 -35,-42 -34,-33 -35,-33 -35,-10 0,13 7,32 17,42 16,18 53,25 53,10 z"
       id="path12" />
    <path
       d="m 428,579 -3,-221 -28,-24 c -50,-43 -127,-27 -148,30 -11,30 -18,36 -41,36 -32,0 -35,-14 -14,-64 18,-43 71,-84 121,-91 48,-7 117,24 149,68 20,26 21,45 24,258 l 3,229 h -30 -30 z"
       id="path14" />
    <path
       d="M 1060,778 C 986,727 985,724 985,472 V 245 l 33,-3 32,-3 v 125 126 h 45 c 43,0 45,1 45,30 0,29 -2,30 -45,30 h -45 v 69 c 0,65 2,71 31,95 18,15 43,26 60,26 26,0 29,4 29,30 0,28 -2,30 -39,30 -23,0 -51,-9 -71,-22 z"
       id="path16" />
    <path
       d="m 1305,781 c -78,-48 -87,-83 -83,-336 l 3,-200 h 30 30 l 3,123 3,122 h 44 c 43,0 45,1 45,29 0,28 -2,30 -47,33 l -47,3 2,65 c 2,58 6,68 33,93 18,17 40,27 59,27 27,0 30,3 30,30 0,28 -2,30 -37,30 -21,0 -51,-8 -68,-19 z"
       id="path18" />
    <path
       d="m 2392,722 c -33,-21 -42,-32 -40,-51 3,-21 -4,-27 -63,-46 -110,-37 -126,-39 -132,-16 -4,18 -13,21 -67,21 -62,0 -62,0 -48,-22 8,-13 21,-33 29,-46 10,-16 21,-22 37,-19 28,5 33,-5 62,-118 20,-80 20,-80 0,-95 -17,-13 -19,-22 -14,-66 l 6,-51 44,24 c 36,20 44,30 44,53 0,27 5,30 83,56 45,15 87,29 93,31 6,2 16,-8 22,-22 9,-19 19,-25 44,-25 56,0 63,11 39,59 -16,31 -27,41 -46,41 -21,0 -27,8 -44,68 -34,114 -34,119 -16,129 13,7 15,22 13,66 l -3,56 z"
       id="path20" />
    <path
       d="m 638,511 c -39,-36 -42,-42 -45,-102 -5,-79 17,-121 80,-149 53,-25 81,-25 134,0 55,24 83,70 83,133 0,102 -54,157 -154,157 -52,0 -60,-3 -98,-39 z m 163,-50 c 60,-61 24,-151 -61,-151 -55,0 -90,34 -90,87 1,86 91,124 151,64 z"
       id="path22" />
    <path
       d="m 1480,528 c -55,-38 -70,-79 -70,-190 v -98 h 30 30 v 85 c 0,91 14,136 49,155 25,13 67,13 91,0 15,-8 22,-5 34,12 21,30 20,33 -9,46 -44,20 -118,15 -155,-10 z"
       id="path24" />
    <path
       d="m 1714,506 c -42,-41 -44,-46 -44,-101 0,-41 6,-67 20,-91 22,-34 90,-74 128,-74 47,0 132,48 132,74 0,6 -9,17 -20,24 -18,11 -25,10 -47,-8 -16,-12 -41,-20 -66,-20 h -40 l 76,79 c 82,84 91,107 55,141 -17,16 -35,20 -86,20 -63,0 -66,-1 -108,-44 z m 130,-23 c 7,-7 -92,-113 -106,-113 -4,0 -8,15 -8,34 0,26 7,41 31,60 29,25 68,34 83,19 z"
       id="path26" />
    <path
       d="m 1763,145 c 0,-22 2,-30 4,-17 2,12 2,30 0,40 -3,9 -5,-1 -4,-23 z"
       id="path28" />
    <path
       d="m 1800,145 c 0,-19 4,-35 8,-35 4,0 6,16 4,35 -2,19 -6,35 -8,35 -2,0 -4,-16 -4,-35 z"
       id="path30" />
    <path
       d="m 1330,135 c 0,-14 2,-25 4,-25 2,0 6,11 8,25 3,14 1,25 -3,25 -5,0 -9,-11 -9,-25 z"
       id="path32" />
    <path
       d="m 1500,135 c 0,-14 3,-25 8,-25 4,0 7,11 7,25 0,14 -3,25 -7,25 -5,0 -8,-11 -8,-25 z"
       id="path34" />
    <path
       d="m 1582,135 c 0,-16 2,-22 5,-12 2,9 2,23 0,30 -3,6 -5,-1 -5,-18 z"
       id="path36" />
    <path
       d="m 1620,141 c 0,-11 4,-22 9,-25 5,-4 7,3 4,14 -7,25 23,28 31,3 4,-14 4,-14 3,2 -3,28 -47,34 -47,6 z"
       id="path38" />
    <path
       d="m 1842,135 c 0,-16 2,-22 5,-12 2,9 2,23 0,30 -3,6 -5,-1 -5,-18 z"
       id="path40" />
    <path
       d="m 1950,149 c 0,-5 5,-7 10,-4 6,3 10,8 10,11 0,2 -4,4 -10,4 -5,0 -10,-5 -10,-11 z"
       id="path42" />
    <path
       d="m 1431,134 c 0,-11 3,-14 6,-6 3,7 2,16 -1,19 -3,4 -6,-2 -5,-13 z"
       id="path44" />
    <path
       d="m 1697,144 c -8,-8 3,-34 15,-34 7,0 6,5 -1,13 -6,8 -8,17 -4,20 3,4 4,7 1,7 -2,0 -7,-3 -11,-6 z"
       id="path46" />
    <path
       d="m 1883,136 c 1,-11 9,-21 17,-23 10,-3 11,-2 4,4 -6,4 -14,15 -17,23 -5,11 -6,9 -4,-4 z"
       id="path48" />
    <path
       d="m 1536,125 c -3,-8 -1,-15 4,-15 6,0 10,7 10,15 0,8 -2,15 -4,15 -2,0 -6,-7 -10,-15 z"
       id="path50" />
    <path
       d="m 1911,54 c 0,-11 3,-14 6,-6 3,7 2,16 -1,19 -3,4 -6,-2 -5,-13 z"
       id="path52" />
    <path
       d="m 1535,49 c -11,-16 -1,-19 13,-3 7,8 8,14 3,14 -5,0 -13,-5 -16,-11 z"
       id="path54" />
    <path
       d="m 1681,44 c 0,-11 3,-14 6,-6 3,7 2,16 -1,19 -3,4 -6,-2 -5,-13 z"
       id="path56" />
    <path
       d="m 1840,56 c 0,-2 7,-7 16,-10 8,-3 12,-2 9,4 -6,10 -25,14 -25,6 z"
       id="path58" />
  </g>
</svg>
