<?xml version="1.0" encoding="UTF-8" standalone="no"?>
<!-- Uploaded to: SVG Repo, www.svgrepo.com, Generator: SVG Repo Mixer Tools -->

<svg
   viewBox="0 0 17.764047 17.764047"
   fill="none"
   version="1.1"
   id="svg1"
   sodipodi:docname="cv.svg"
   inkscape:version="1.4 (1:1.4+202410161351+e7c3feb100)"
   inkscape:export-filename="cv.png"
   inkscape:export-xdpi="96"
   inkscape:export-ydpi="96"
   xmlns:inkscape="http://www.inkscape.org/namespaces/inkscape"
   xmlns:sodipodi="http://sodipodi.sourceforge.net/DTD/sodipodi-0.dtd"
   xmlns="http://www.w3.org/2000/svg"
   xmlns:svg="http://www.w3.org/2000/svg">
  <defs
     id="defs1" />
  <sodipodi:namedview
     id="namedview1"
     pagecolor="#505050"
     bordercolor="#eeeeee"
     borderopacity="1"
     inkscape:showpageshadow="0"
     inkscape:pageopacity="0"
     inkscape:pagecheckerboard="0"
     inkscape:deskcolor="#505050"
     inkscape:zoom="32.146922"
     inkscape:cx="9.7987607"
     inkscape:cy="7.6212583"
     inkscape:window-width="1147"
     inkscape:window-height="902"
     inkscape:window-x="12"
     inkscape:window-y="10"
     inkscape:window-maximized="0"
     inkscape:current-layer="svg1" />
  <path
     id="path3"
     style="fill:#ffffff;fill-opacity:1;stroke:none;stroke-width:1.94194;stroke-linecap:round;stroke-linejoin:round;stroke-dasharray:none;stroke-opacity:1;paint-order:fill markers stroke"
     d="M 3.5859375 0.05625 C 2.3503272 0.05625 1.7328764 0.057186072 1.2609375 0.29765625 C 0.84579843 0.50916944 0.50916944 0.84579843 0.29765625 1.2609375 C 0.057186072 1.7328764 0.05625 2.3503162 0.05625 3.5859375 L 0.05625 14.177344 C 0.05625 15.412954 0.057186072 16.030427 0.29765625 16.502344 C 0.50916944 16.917449 0.84579843 17.254156 1.2609375 17.465625 C 1.7328764 17.706106 2.3503162 17.707031 3.5859375 17.707031 L 14.177344 17.707031 C 15.412954 17.707031 16.030427 17.706106 16.502344 17.465625 C 16.917449 17.254156 17.254156 16.917449 17.465625 16.502344 C 17.706106 16.030427 17.707031 15.412954 17.707031 14.177344 L 17.707031 3.5859375 C 17.707031 2.3503272 17.706106 1.7328764 17.465625 1.2609375 C 17.254156 0.84579843 16.917449 0.50916944 16.502344 0.29765625 C 16.030427 0.057186072 15.412954 0.05625 14.177344 0.05625 L 3.5859375 0.05625 z M 9.3632813 5.8640625 L 11.430469 5.8640625 L 11.430469 6.2789063 C 11.214292 6.2789063 11.086815 6.3084595 11.050781 6.3679688 C 11.005747 6.4473145 11.02362 6.59328 11.104688 6.8015626 L 12.428906 10.638281 L 13.767188 6.6070313 C 13.785208 6.5078491 13.77744 6.4233338 13.741406 6.3539063 C 13.687361 6.304315 13.559884 6.2789063 13.361719 6.2789063 L 13.361719 5.8640625 L 15.009375 5.8640625 L 15.009375 6.2789063 C 14.577014 6.2789063 14.321692 6.3888304 14.240625 6.6070313 L 12.428906 12.096094 L 11.957813 12.096094 L 10.038281 6.8015626 C 9.9211833 6.4445068 9.6965597 6.2689882 9.3632813 6.2789063 L 9.3632813 5.8640625 z M 6.1265625 5.878125 C 6.8201414 5.878125 7.3560594 6.0323789 7.7343751 6.3398438 C 7.9955931 6.5580446 8.1079051 6.7755492 8.0718751 6.9937501 C 8.0088224 7.3210513 7.8250057 7.4794495 7.5187501 7.4695313 C 7.2665395 7.459613 7.0446266 7.3012149 6.8554688 6.9937501 C 6.6843259 6.6565305 6.3524448 6.4579469 5.8570313 6.3984376 C 5.4246704 6.4083558 5.0546931 6.6258603 4.7484375 7.0523438 C 4.3791293 7.5383366 4.1980237 8.2292353 4.2070313 9.1218751 C 4.2070313 9.9351696 4.411068 10.579395 4.8164063 11.055469 C 5.2217446 11.481953 5.693924 11.695313 6.234375 11.695313 C 6.9369614 11.65564 7.5774251 11.277394 8.1539063 10.563281 L 8.5054688 10.905469 C 7.81189 11.788189 7.0540591 12.236174 6.234375 12.246094 C 5.3966759 12.246094 4.6897625 11.992548 4.1132813 11.486719 C 3.4917626 10.901544 3.1804688 10.113697 3.1804688 9.1218751 C 3.1804688 8.2490717 3.4023817 7.5244756 3.84375 6.9492188 C 4.4112237 6.2351069 5.1717657 5.878125 6.1265625 5.878125 z " />
</svg>
