<?xml version="1.0" encoding="UTF-8" standalone="no"?>
<!-- Uploaded to: SVG Repo, www.svgrepo.com, Generator: SVG Repo Mixer Tools -->

<svg
   width="14.803372"
   height="14.803372"
   viewBox="0 0 17.764047 17.764047"
   fill="none"
   version="1.1"
   id="svg1"
   sodipodi:docname="cv.svg"
   inkscape:version="1.4 (1:1.4+202410161351+e7c3feb100)"
   xmlns:inkscape="http://www.inkscape.org/namespaces/inkscape"
   xmlns:sodipodi="http://sodipodi.sourceforge.net/DTD/sodipodi-0.dtd"
   xmlns="http://www.w3.org/2000/svg"
   xmlns:svg="http://www.w3.org/2000/svg">
  <defs
     id="defs1" />
  <sodipodi:namedview
     id="namedview1"
     pagecolor="#505050"
     bordercolor="#eeeeee"
     borderopacity="1"
     inkscape:showpageshadow="0"
     inkscape:pageopacity="0"
     inkscape:pagecheckerboard="0"
     inkscape:deskcolor="#505050"
     inkscape:zoom="32"
     inkscape:cx="5.671875"
     inkscape:cy="6"
     inkscape:window-width="1147"
     inkscape:window-height="902"
     inkscape:window-x="12"
     inkscape:window-y="10"
     inkscape:window-maximized="0"
     inkscape:current-layer="svg1" />
  <path
     id="path3"
     style="fill:#ffffff;fill-opacity:1;stroke:none;stroke-width:1.94194;stroke-linecap:round;stroke-linejoin:round;stroke-dasharray:none;stroke-opacity:1;paint-order:fill markers stroke"
     d="M 3.5859375 0.05625 C 2.3503272 0.05625 1.7328764 0.057186072 1.2609375 0.29765625 C 0.84579843 0.50916944 0.50916944 0.84579843 0.29765625 1.2609375 C 0.057186072 1.7328764 0.05625 2.3503162 0.05625 3.5859375 L 0.05625 14.177344 C 0.05625 15.412954 0.057186072 16.030427 0.29765625 16.502344 C 0.50916944 16.917449 0.84579843 17.254156 1.2609375 17.465625 C 1.7328764 17.706106 2.3503162 17.707031 3.5859375 17.707031 L 14.177344 17.707031 C 15.412954 17.707031 16.030427 17.706106 16.502344 17.465625 C 16.917449 17.254156 17.254156 16.917449 17.465625 16.502344 C 17.706106 16.030427 17.707031 15.412954 17.707031 14.177344 L 17.707031 3.5859375 C 17.707031 2.3503272 17.706106 1.7328764 17.465625 1.2609375 C 17.254156 0.84579843 16.917449 0.50916944 16.502344 0.29765625 C 16.030427 0.057186072 15.412954 0.05625 14.177344 0.05625 L 3.5859375 0.05625 z M 9.3515626 4.8140625 L 12.067969 4.8140625 L 12.067969 5.3601563 C 11.783966 5.3601563 11.618427 5.3991647 11.571094 5.4773438 C 11.511927 5.5815825 11.534906 5.7709047 11.641406 6.0445313 L 13.380469 11.085938 L 15.138281 5.7914063 C 15.161948 5.6611079 15.150458 5.5498027 15.103125 5.4585938 C 15.032124 5.3934445 14.866585 5.3601563 14.60625 5.3601563 L 14.60625 4.8140625 L 16.771875 4.8140625 L 16.771875 5.3601563 C 16.203871 5.3601563 15.865876 5.5047498 15.759375 5.7914063 L 13.380469 13.003125 L 12.759375 13.003125 L 10.239844 6.0445313 C 10.086009 5.5754572 9.7893994 5.3471266 9.3515626 5.3601563 L 9.3515626 4.8140625 z M 5.1 4.8328125 C 6.0111736 4.8328125 6.7147151 5.033575 7.2117188 5.4375 C 7.5548881 5.7241564 7.7043649 6.0109998 7.6570313 6.2976563 C 7.5741973 6.7276409 7.3304615 6.9364674 6.9281251 6.9234376 C 6.5967892 6.9104077 6.3070957 6.7015812 6.0585938 6.2976563 C 5.8337588 5.8546418 5.3969321 5.5953666 4.7460938 5.5171875 C 4.1780895 5.5302174 3.6929614 5.8170607 3.290625 6.3773438 C 2.8054547 7.0158059 2.5686354 7.9210647 2.5804688 9.0937501 C 2.5804688 10.162197 2.8471835 11.008943 3.3796875 11.634375 C 3.9121917 12.194658 4.5329635 12.475781 5.2429688 12.475781 C 6.1659758 12.423662 7.005161 11.927993 7.7625001 10.989844 L 8.2242188 11.439844 C 7.3130453 12.599496 6.3198103 13.184623 5.2429688 13.197656 C 4.1424605 13.197656 3.2135891 12.866085 2.45625 12.201563 C 1.6397439 11.432803 1.2304688 10.396734 1.2304688 9.0937501 C 1.2304688 7.9471243 1.5201623 6.9947931 2.1 6.2390625 C 2.8455056 5.3009141 3.8456572 4.8328125 5.1 4.8328125 z " />
</svg>
