<?xml version="1.0" standalone="no"?>
<!DOCTYPE svg PUBLIC "-//W3C//DTD SVG 20010904//EN"
 "http://www.w3.org/TR/2001/REC-SVG-20010904/DTD/svg10.dtd">
<svg version="1.0" xmlns="http://www.w3.org/2000/svg"
 width="220.000000pt" height="303.000000pt" viewBox="0 0 220.000000 303.000000"
 preserveAspectRatio="xMidYMid meet">

<g transform="translate(0.000000,303.000000) scale(0.100000,-0.100000)"
fill="#000000" stroke="none">
<path d="M991 3000 c-178 -38 -351 -142 -402 -242 -21 -40 -19 -48 14 -85 11
-13 19 -24 16 -25 -2 -2 -13 -8 -24 -14 -29 -16 -30 -47 -1 -110 27 -58 33
-90 17 -79 -13 8 -24 -12 -14 -27 4 -7 8 -19 9 -25 1 -7 10 -20 19 -29 15 -15
16 -51 13 -368 -1 -193 -4 -390 -6 -438 l-3 -88 -257 -2 c-165 -2 -256 -7
-254 -13 1 -7 344 -10 1002 -10 658 0 1001 3 1003 10 1 6 -90 11 -255 13
l-257 2 -3 93 c-2 50 -5 249 -6 441 -2 299 0 351 13 366 8 9 18 31 21 50 6 28
5 32 -9 27 -22 -8 -22 -10 13 68 41 91 38 116 -13 126 -17 4 -16 8 12 42 l30
39 -19 38 c-41 81 -179 174 -325 220 -79 25 -260 35 -334 20z m263 -35 c164
-34 332 -133 366 -215 12 -29 11 -33 -15 -60 l-29 -30 -462 0 -463 0 -20 26
c-29 36 -27 50 14 99 119 146 389 225 609 180z m240 -396 c8 -80 8 -977 0
-1046 l-7 -53 -367 0 -367 0 -7 46 c-8 61 -8 973 0 1053 l7 61 367 0 367 0 7
-61z m-776 29 c-2 -18 -10 -23 -33 -23 -23 0 -31 5 -33 23 -3 19 1 22 33 22
32 0 36 -3 33 -22z m862 -3 c0 -21 -5 -25 -30 -25 -25 0 -30 4 -30 25 0 21 5
25 30 25 25 0 30 -4 30 -25z m-880 -135 c0 -73 -3 -90 -15 -90 -12 0 -15 17
-15 90 0 73 3 90 15 90 12 0 15 -17 15 -90z m870 0 c0 -83 -1 -90 -20 -90 -19
0 -20 7 -20 90 0 83 1 90 20 90 19 0 20 -7 20 -90z m-860 -520 c0 -393 0 -400
-20 -400 -20 0 -20 7 -20 400 0 393 0 400 20 400 20 0 20 -7 20 -400z m860 0
c0 -393 0 -400 -20 -400 -20 0 -20 7 -20 400 0 393 0 400 20 400 20 0 20 -7
20 -400z m-850 -450 c0 -16 -7 -20 -35 -20 -28 0 -35 4 -35 20 0 16 7 20 35
20 28 0 35 -4 35 -20z m860 0 c0 -16 -7 -20 -30 -20 -23 0 -30 4 -30 20 0 16
7 20 30 20 23 0 30 -4 30 -20z"/>
<path d="M935 2916 c-136 -44 -220 -100 -254 -168 -11 -23 -18 -45 -15 -50 8
-12 914 -10 914 2 0 23 -30 68 -69 103 -49 44 -133 88 -225 116 -97 30 -254
29 -351 -3z m349 -21 c83 -29 165 -82 200 -128 14 -19 26 -37 26 -42 0 -8
-767 -1 -776 7 -10 11 78 96 127 123 88 47 154 64 259 64 76 1 109 -4 164 -24z"/>
<path d="M1027 2865 c-5 -11 0 -13 24 -8 l29 6 -20 -44 c-21 -47 -25 -69 -12
-69 7 0 42 105 42 125 0 12 -58 4 -63 -10z"/>
<path d="M1120 2860 c-13 -24 3 -60 25 -60 22 0 18 -17 -7 -34 -12 -9 -18 -16
-12 -16 6 0 23 9 38 21 26 20 34 57 20 93 -9 23 -51 20 -64 -4z m48 -14 c2
-10 -1 -23 -6 -28 -12 -12 -36 27 -27 43 10 15 29 5 33 -15z"/>
<path d="M959 2866 c-2 -2 -2 -27 -1 -55 3 -35 8 -51 18 -51 10 0 14 14 14 55
0 39 -4 55 -13 55 -8 0 -16 -2 -18 -4z"/>
<path d="M1236 2837 c-32 -42 -32 -43 -2 -51 14 -3 26 -14 29 -24 3 -13 6 -12
15 10 10 24 0 98 -13 98 -2 0 -15 -15 -29 -33z m15 -30 c-16 -16 -26 0 -10 19
9 11 15 12 17 4 2 -6 -1 -17 -7 -23z"/>
<path d="M812 2053 l3 -508 305 0 305 0 3 508 2 507 -310 0 -310 0 2 -507z
m471 440 l-73 -35 0 -408 0 -408 73 -35 72 -35 -235 -1 -235 0 66 34 c55 28
67 39 71 62 2 15 5 199 7 408 l3 380 -74 37 -73 37 235 0 235 -1 -72 -35z
m-356 -15 l73 -33 0 -127 c0 -71 -3 -128 -6 -128 -3 0 -39 10 -80 22 l-74 21
0 139 c0 76 3 138 8 138 4 0 40 -15 79 -32z m465 15 c2 -10 4 -72 4 -138 l-1
-120 -73 -24 c-40 -13 -76 -21 -79 -17 -4 4 -7 48 -6 99 1 168 -6 150 71 185
81 37 79 36 84 15z m-394 -450 l3 -121 -70 -21 c-38 -12 -74 -21 -80 -21 -11
0 -17 311 -5 322 3 3 38 -4 77 -16 l72 -22 3 -121z m395 -36 c0 -65 -4 -121
-7 -124 -3 -3 -37 4 -76 16 l-71 22 3 122 3 121 70 21 70 22 5 -41 c3 -23 4
-94 3 -159z m-393 -227 l0 -121 -72 -33 c-40 -18 -76 -31 -80 -29 -5 2 -8 60
-8 128 l0 124 78 25 c42 14 78 25 80 26 1 0 2 -54 2 -120z m388 67 c11 -9 13
-37 9 -127 -3 -63 -6 -118 -6 -122 -1 -5 -121 42 -149 58 -3 2 -6 156 -3 210
l1 32 68 -21 c37 -11 73 -25 80 -30z"/>
<path d="M1830 1281 c-54 -17 -92 -43 -120 -83 -26 -35 -30 -50 -30 -102 0
-96 45 -151 159 -196 131 -51 159 -69 181 -114 52 -109 -23 -197 -149 -174
-64 12 -105 48 -143 126 -31 64 -44 82 -60 82 -5 0 -8 -54 -8 -120 0 -103 2
-122 17 -127 10 -4 22 1 32 14 17 20 17 20 61 -1 61 -27 190 -29 240 -2 99 52
145 143 120 236 -16 60 -60 102 -142 139 -159 71 -180 84 -199 115 -50 82 -1
165 99 166 47 0 57 -4 93 -37 24 -23 49 -62 64 -98 17 -42 29 -60 42 -60 16 0
18 10 19 95 0 52 -2 103 -4 113 -5 20 -35 23 -51 3 -10 -12 -18 -11 -53 6 -45
22 -130 32 -168 19z"/>
<path d="M107 1264 c-11 -11 5 -34 24 -34 45 0 67 -21 72 -69 9 -66 9 -350 1
-448 l-7 -83 -41 -12 c-42 -12 -59 -26 -50 -40 7 -10 555 -10 571 0 6 4 14 51
18 105 6 91 6 97 -12 97 -14 0 -28 -18 -49 -61 -43 -91 -57 -99 -178 -99 -66
0 -108 4 -119 12 -14 11 -17 35 -19 148 l-3 135 65 -3 c75 -4 106 -24 116 -79
4 -23 12 -33 25 -33 18 0 19 9 19 135 0 125 -1 135 -19 135 -12 0 -20 -9 -24
-28 -3 -15 -15 -40 -27 -55 -20 -25 -27 -27 -91 -27 l-69 0 0 135 0 135 106 0
106 0 30 -32 c16 -17 36 -44 44 -60 8 -16 23 -28 34 -28 18 0 20 7 20 80 l0
80 -268 0 c-148 0 -271 -3 -275 -6z"/>
<path d="M790 1255 c0 -9 8 -18 18 -21 111 -35 115 -47 110 -333 -2 -124 -8
-234 -12 -243 -4 -9 -28 -25 -52 -34 -30 -11 -44 -23 -44 -35 0 -18 10 -19
140 -19 132 0 140 1 140 20 0 14 -10 22 -38 30 -75 20 -77 24 -80 277 -2 124
1 223 5 220 4 -3 98 -127 208 -276 153 -207 205 -270 222 -271 21 0 21 0 25
306 l3 306 28 24 c15 13 39 24 51 24 20 0 36 16 36 36 0 2 -66 4 -146 4 -131
0 -145 -2 -142 -17 2 -10 18 -20 38 -25 19 -5 45 -20 58 -34 21 -24 22 -32 22
-230 0 -113 -3 -203 -8 -201 -4 3 -90 118 -192 256 l-185 251 -102 0 c-86 0
-103 -3 -103 -15z"/>
<path d="M165 420 c-3 -6 1 -7 9 -4 18 7 21 14 7 14 -6 0 -13 -4 -16 -10z"/>
<path d="M125 325 c0 -56 3 -65 18 -65 14 0 16 4 8 18 -5 9 -8 38 -7 65 1 26
-3 47 -9 47 -6 0 -10 -28 -10 -65z"/>
<path d="M195 380 c3 -5 8 -10 11 -10 2 0 4 5 4 10 0 6 -5 10 -11 10 -5 0 -7
-4 -4 -10z"/>
<path d="M287 372 c-23 -25 -21 -75 3 -97 11 -10 22 -16 25 -13 3 3 -1 11 -10
18 -18 15 -20 81 -3 98 7 7 10 12 7 12 -3 0 -13 -8 -22 -18z"/>
<path d="M351 373 c7 -10 15 -20 16 -22 2 -2 3 5 3 17 0 14 -6 22 -16 22 -14
0 -15 -3 -3 -17z"/>
<path d="M440 370 c-11 -11 -20 -26 -20 -34 0 -27 18 -63 35 -70 15 -5 15 -4
0 16 -19 28 -19 58 1 86 19 27 11 29 -16 2z"/>
<path d="M514 369 c20 -29 20 -58 0 -87 -18 -26 -12 -29 10 -6 25 24 21 91 -5
105 -21 11 -21 10 -5 -12z"/>
<path d="M608 325 c5 -89 27 -89 27 0 0 51 -3 65 -15 65 -12 0 -14 -12 -12
-65z"/>
<path d="M755 325 c0 -51 3 -65 15 -65 12 0 14 12 12 65 -5 89 -27 89 -27 0z"/>
<path d="M825 380 c3 -5 8 -10 11 -10 2 0 4 5 4 10 0 6 -5 10 -11 10 -5 0 -7
-4 -4 -10z"/>
<path d="M980 387 c0 -2 15 -19 33 -38 18 -19 42 -47 54 -64 l21 -30 4 68 c2
42 -1 67 -7 67 -7 0 -9 -15 -7 -34 7 -59 -3 -62 -37 -13 -17 26 -38 47 -46 47
-8 0 -15 -2 -15 -3z"/>
<path d="M1177 372 c-24 -27 -21 -75 5 -98 18 -15 20 -15 9 -2 -16 22 -17 84
-1 103 18 21 6 18 -13 -3z"/>
<path d="M1249 373 c16 -32 13 -79 -5 -97 -8 -9 -11 -16 -5 -16 15 0 41 42 41
66 0 12 -9 32 -21 45 -19 23 -20 23 -10 2z"/>
<path d="M1345 325 c0 -45 4 -65 13 -65 7 0 12 13 12 30 0 38 10 38 35 0 11
-16 26 -30 33 -30 9 0 4 12 -13 32 -23 27 -24 33 -11 40 21 12 20 44 0 52 -9
4 -19 4 -22 1 -3 -3 0 -5 7 -5 24 0 7 -45 -18 -48 -21 -3 -23 -1 -19 27 3 18
0 31 -6 31 -7 0 -11 -25 -11 -65z"/>
<path d="M1505 325 c0 -58 2 -65 20 -65 14 0 16 3 7 9 -9 5 -12 25 -10 57 l3
49 21 -55 c20 -51 22 -53 33 -32 9 17 9 22 0 20 -6 -2 -18 16 -27 40 -25 67
-47 56 -47 -23z"/>
<path d="M1615 325 c0 -51 3 -65 15 -65 12 0 14 12 12 65 -5 89 -27 89 -27 0z"/>
<path d="M1757 383 c-4 -5 2 -29 13 -51 11 -23 20 -48 20 -57 0 -8 7 -15 14
-15 12 0 10 11 -8 53 -13 28 -25 59 -28 67 -3 9 -7 10 -11 3z"/>
<path d="M1881 363 c6 -16 8 -45 5 -65 -5 -27 -3 -38 6 -38 9 0 13 19 13 65 0
55 -3 65 -17 65 -15 0 -16 -4 -7 -27z"/>
<path d="M2025 325 c0 -51 3 -65 15 -65 12 0 14 12 12 65 -5 89 -27 89 -27 0z"/>
<path d="M2080 386 c0 -2 7 -6 15 -10 8 -3 15 -1 15 4 0 6 -7 10 -15 10 -8 0
-15 -2 -15 -4z"/>
<path d="M175 331 c-3 -5 -1 -12 5 -16 5 -3 10 1 10 9 0 18 -6 21 -15 7z"/>
<path d="M805 330 c-3 -5 -1 -10 4 -10 6 0 11 5 11 10 0 6 -2 10 -4 10 -3 0
-8 -4 -11 -10z"/>
<path d="M2075 331 c-3 -5 -1 -12 5 -16 5 -3 10 1 10 9 0 18 -6 21 -15 7z"/>
<path d="M1726 314 c-4 -9 -4 -19 -1 -22 2 -3 7 3 11 12 4 9 4 19 1 22 -2 3
-7 -3 -11 -12z"/>
<path d="M202 275 c-11 -12 -10 -15 3 -15 8 0 15 7 15 15 0 18 -2 18 -18 0z"/>
<path d="M680 275 c-10 -12 -10 -15 4 -15 9 0 16 7 16 15 0 8 -2 15 -4 15 -2
0 -9 -7 -16 -15z"/>
<path d="M987 275 c-5 -11 0 -15 16 -15 12 0 18 4 12 8 -5 4 -13 11 -16 15 -4
4 -9 1 -12 -8z"/>
<path d="M1950 275 c-10 -12 -10 -15 4 -15 9 0 16 7 16 15 0 8 -2 15 -4 15 -2
0 -9 -7 -16 -15z"/>
<path d="M2102 275 c-11 -12 -10 -15 3 -15 8 0 15 7 15 15 0 18 -2 18 -18 0z"/>
<path d="M830 270 c-13 -8 -12 -10 3 -10 9 0 17 5 17 10 0 12 -1 12 -20 0z"/>
<path d="M1705 270 c-3 -5 1 -10 10 -10 9 0 13 5 10 10 -3 6 -8 10 -10 10 -2
0 -7 -4 -10 -10z"/>
<path d="M127 153 c-15 -14 -6 -52 13 -58 11 -3 27 -13 35 -22 13 -12 13 -18
3 -32 -12 -14 -11 -15 5 -2 26 21 21 39 -18 62 -36 21 -45 43 -22 52 6 3 7 6
1 6 -6 1 -14 -2 -17 -6z"/>
<path d="M176 145 c4 -8 8 -15 10 -15 2 0 4 7 4 15 0 8 -4 15 -10 15 -5 0 -7
-7 -4 -15z"/>
<path d="M320 121 c0 -47 15 -91 31 -91 8 0 8 4 -1 15 -7 8 -11 35 -8 65 2 35
-1 50 -9 50 -8 0 -13 -15 -13 -39z"/>
<path d="M407 140 c3 -11 7 -20 8 -20 1 0 5 9 8 20 3 12 0 20 -8 20 -8 0 -11
-8 -8 -20z"/>
<path d="M558 96 c-2 -44 1 -66 8 -66 8 0 10 20 7 63 -3 34 -6 63 -8 65 -2 2
-5 -26 -7 -62z"/>
<path d="M611 141 c10 -15 10 -23 0 -35 -16 -19 -1 -22 17 -4 18 18 15 36 -8
48 -19 10 -20 9 -9 -9z"/>
<path d="M762 95 c0 -46 3 -65 12 -65 8 0 11 10 8 30 -4 25 -1 30 17 30 11 0
21 4 21 9 0 5 -9 7 -20 4 -17 -5 -20 0 -20 26 0 17 -4 31 -8 31 -5 0 -9 -29
-10 -65z"/>
<path d="M825 150 c3 -5 8 -10 11 -10 2 0 4 5 4 10 0 6 -5 10 -11 10 -5 0 -7
-4 -4 -10z"/>
<path d="M978 96 c-2 -41 1 -66 7 -66 10 0 11 118 1 127 -2 3 -6 -25 -8 -61z"/>
<path d="M1031 142 c11 -18 10 -24 -3 -39 -15 -17 -15 -20 7 -48 13 -16 27
-27 30 -24 3 3 -4 18 -16 33 -21 26 -21 28 -3 41 15 11 17 18 8 31 -6 10 -16
20 -23 22 -10 3 -10 0 0 -16z"/>
<path d="M1195 95 c0 -47 4 -65 13 -65 10 0 12 16 10 62 -4 83 -23 86 -23 3z"/>
<path d="M1360 95 c0 -47 4 -65 13 -65 9 0 12 10 9 32 -4 28 -2 30 17 25 13
-3 21 0 21 8 0 8 -8 11 -20 8 -17 -5 -20 0 -20 26 0 17 -4 31 -10 31 -6 0 -10
-28 -10 -65z"/>
<path d="M1425 150 c3 -5 8 -10 11 -10 2 0 4 5 4 10 0 6 -5 10 -11 10 -5 0 -7
-4 -4 -10z"/>
<path d="M1570 121 c0 -48 15 -91 32 -91 9 0 9 3 0 12 -7 7 -12 36 -12 65 0
29 -4 53 -10 53 -5 0 -10 -18 -10 -39z"/>
<path d="M1658 110 c3 -32 -1 -57 -10 -68 -12 -15 -11 -16 4 -4 18 15 30 122
13 122 -6 0 -9 -21 -7 -50z"/>
<path d="M1805 95 c0 -47 4 -65 13 -65 10 0 12 16 10 62 -4 83 -23 86 -23 3z"/>
<path d="M2030 96 c0 -48 4 -66 13 -66 9 0 12 10 9 32 -4 28 -2 30 17 25 13
-3 21 0 21 8 0 8 -8 11 -20 8 -16 -4 -20 0 -20 20 0 14 -4 29 -10 32 -6 4 -10
-18 -10 -59z"/>
<path d="M2095 150 c3 -5 8 -10 11 -10 2 0 4 5 4 10 0 6 -5 10 -11 10 -5 0 -7
-4 -4 -10z"/>
<path d="M1867 132 c2 -10 -3 -24 -11 -31 -14 -11 -13 -16 6 -42 12 -16 28
-29 37 -29 10 0 8 7 -9 25 -21 22 -22 29 -12 45 16 26 15 50 -2 50 -9 0 -12
-7 -9 -18z"/>
<path d="M412 85 c0 -16 2 -22 5 -12 2 9 2 23 0 30 -3 6 -5 -1 -5 -18z"/>
<path d="M110 52 c0 -14 6 -22 16 -22 14 0 15 3 3 18 -7 9 -15 19 -16 21 -2 2
-3 -5 -3 -17z"/>
<path d="M835 40 c-3 -5 -1 -10 4 -10 6 0 11 5 11 10 0 6 -2 10 -4 10 -3 0 -8
-4 -11 -10z"/>
<path d="M1435 40 c-3 -5 -1 -10 4 -10 6 0 11 5 11 10 0 6 -2 10 -4 10 -3 0
-8 -4 -11 -10z"/>
<path d="M2105 40 c-3 -5 -1 -10 4 -10 6 0 11 5 11 10 0 6 -2 10 -4 10 -3 0
-8 -4 -11 -10z"/>
</g>
</svg>
