<?xml version="1.0" encoding="UTF-8" standalone="no"?>
<svg
   version="1.0"
   width="377.47476pt"
   height="557.34772pt"
   viewBox="0 0 377.47476 557.34772"
   preserveAspectRatio="xMidYMid meet"
   id="svg206"
   sodipodi:docname="IPGG.svg"
   inkscape:version="1.1.2 (0a00cf5339, 2022-02-04)"
   xmlns:inkscape="http://www.inkscape.org/namespaces/inkscape"
   xmlns:sodipodi="http://sodipodi.sourceforge.net/DTD/sodipodi-0.dtd"
   xmlns="http://www.w3.org/2000/svg"
   xmlns:svg="http://www.w3.org/2000/svg">
  <defs
     id="defs210" />
  <sodipodi:namedview
     id="namedview208"
     pagecolor="#505050"
     bordercolor="#eeeeee"
     borderopacity="1"
     inkscape:pageshadow="0"
     inkscape:pageopacity="0"
     inkscape:pagecheckerboard="0"
     inkscape:document-units="pt"
     showgrid="false"
     inkscape:zoom="0.73892443"
     inkscape:cx="76.462488"
     inkscape:cy="372.16255"
     inkscape:window-width="1900"
     inkscape:window-height="1030"
     inkscape:window-x="0"
     inkscape:window-y="0"
     inkscape:window-maximized="1"
     inkscape:current-layer="svg206"
     fit-margin-top="0"
     fit-margin-left="0"
     fit-margin-right="0"
     fit-margin-bottom="0" />
  <g
     transform="matrix(0.1,0,0,-0.1,-0.52522679,558.69537)"
     fill="#000000"
     stroke="none"
     id="g204">
    <path
       d="m 1788,5576 c -232,-67 -349,-334 -241,-551 30,-61 105,-140 153,-162 19,-9 43,-23 53,-31 16,-14 17,-96 18,-1441 1,-784 5,-1851 8,-2371 7,-886 7,-913 11,-425 2,286 6,465 7,398 2,-71 8,-123 13,-123 6,0 11,52 12,123 2,98 3,82 8,-83 5,-165 6,-181 8,-82 1,90 5,122 15,122 9,0 11,-20 9,-74 -3,-68 -2,-75 17,-81 34,-11 41,3 41,81 0,43 4,74 10,74 6,0 10,-33 10,-80 0,-74 1,-80 21,-80 19,0 20,5 17,80 -2,44 0,80 5,80 4,0 7,-36 7,-80 0,-50 4,-80 11,-80 7,0 9,-109 7,-351 -2,-193 0,-340 4,-327 3,13 6,1081 7,2373 l 1,2351 37,13 c 42,16 125,90 158,141 49,78 71,196 53,285 -25,121 -114,232 -225,282 -71,31 -184,39 -255,19 z m 175,-231 c 66,-31 102,-125 77,-199 -45,-138 -244,-145 -296,-10 -54,140 85,273 219,209 z M 1827,1208 c -2,-13 -4,-3 -4,22 0,25 2,35 4,23 2,-13 2,-33 0,-45 z m 153,-133 c 0,-70 -4,-115 -10,-115 -6,0 -10,27 -10,63 0,65 10,167 16,167 2,0 4,-52 4,-115 z"
       id="path2" />
    <path
       d="m 1308,4452 c -62,-38 -58,83 -58,-1624 V 1275 l -30,-45 c -19,-28 -28,-52 -24,-65 4,-14 3,-16 -4,-7 -7,10 -26,-14 -71,-86 -63,-103 -72,-124 -46,-102 10,9 15,9 15,1 0,-6 5,-11 10,-11 14,0 12,27 -2,33 -9,4 -10,8 -2,14 6,4 13,15 16,23 3,8 5,-3 4,-25 -3,-71 -60,-143 -61,-77 0,11 -4,24 -8,28 -4,4 -7,0 -7,-10 0,-10 -7,-24 -15,-33 -18,-17 -16,-35 6,-42 12,-4 12,-2 0,12 -7,10 -9,17 -3,17 17,0 21,-27 7,-47 -8,-10 -15,-28 -15,-39 0,-18 6,-22 33,-21 59,0 67,-3 67,-23 0,-26 17,-25 40,3 13,16 22,19 30,11 8,-8 5,-17 -8,-35 -11,-13 -22,-34 -26,-46 -8,-24 -26,-32 -26,-11 0,6 -2,9 -5,6 -3,-3 -2,-15 3,-28 8,-22 9,-22 30,12 12,20 22,40 22,47 0,6 5,11 10,11 6,0 13,8 17,18 4,9 19,36 34,58 16,23 25,45 21,49 -4,3 0,5 8,3 11,-2 14,4 12,21 -2,14 0,21 6,17 6,-3 13,3 17,14 3,11 11,20 16,20 5,0 9,5 9,12 0,10 84,143 100,158 18,18 42,83 38,104 -3,14 -1,26 3,26 5,0 10,-12 10,-27 l 1,-28 8,30 c 4,17 8,736 9,1598 l 1,1569 -21,29 c -40,57 -115,75 -171,41 z m -31,-3124 c -3,-8 -6,-5 -6,6 -1,11 2,17 5,13 3,-3 4,-12 1,-19 z m 3,-89 c 0,-6 -4,-7 -10,-4 -5,3 -10,11 -10,16 0,6 5,7 10,4 6,-3 10,-11 10,-16 z m -20,-13 c 0,-3 -4,-8 -10,-11 -5,-3 -10,-1 -10,4 0,6 5,11 10,11 6,0 10,-2 10,-4 z m 187,-48 c -3,-8 -6,-5 -6,6 -1,11 2,17 5,13 3,-3 4,-12 1,-19 z m -260,-70 c -22,-14 -28,-8 -16,13 9,17 13,19 20,8 5,-8 3,-16 -4,-21 z m 203,-16 c 0,-20 -35,-79 -45,-76 -6,3 -17,-5 -23,-18 -11,-23 -11,-23 -11,5 -1,25 10,32 40,29 9,-2 20,58 13,69 -3,5 2,6 10,3 9,-3 16,-9 16,-12 z m -230,-32 c 0,-12 -28,-25 -36,-17 -9,9 6,27 22,27 8,0 14,-5 14,-10 z m 30,-15 c 0,-8 -4,-15 -10,-15 -5,0 -10,7 -10,15 0,8 5,15 10,15 6,0 10,-7 10,-15 z m 103,-84 c 4,-29 2,-40 -4,-30 -8,13 -14,88 -5,78 2,-2 6,-24 9,-48 z m -38,-78 c -5,-10 -7,-25 -6,-33 2,-11 -3,-10 -20,5 -24,21 -24,21 -3,-30 3,-8 1,-15 -5,-15 -6,0 -11,-7 -11,-16 0,-8 -4,-13 -9,-10 -11,7 6,114 22,131 17,19 43,-6 32,-32 z m -107,6 c 2,-14 -2,-38 -9,-55 l -12,-29 -8,29 c -10,35 0,88 15,83 6,-2 12,-15 14,-28 z m 7,-109 c -3,-5 -10,-10 -16,-10 -5,0 -9,5 -9,10 0,6 7,10 16,10 8,0 12,-4 9,-10 z"
       id="path20" />
    <path
       d="m 2330,4431 -41,-39 1,-1573 c 1,-866 4,-1585 7,-1597 4,-18 8,-21 14,-10 6,9 8,5 7,-12 -1,-26 64,-140 70,-122 2,6 -2,21 -8,32 -6,12 -9,24 -6,28 11,10 17,-6 20,-53 2,-26 8,-50 13,-54 5,-3 22,-28 38,-56 15,-27 36,-61 47,-74 l 18,-24 v 26 c 0,14 7,32 15,41 8,8 15,25 15,38 1,17 5,12 15,-17 20,-55 20,-89 -1,-81 -12,5 -15,2 -10,-10 4,-11 2,-15 -8,-11 -16,6 -13,-6 10,-52 13,-24 16,-25 111,-22 53,1 99,3 101,5 1,2 -8,21 -23,41 -14,22 -25,52 -25,71 0,28 -4,33 -31,39 -23,5 -28,10 -20,18 14,14 15,67 1,67 -5,0 -10,5 -10,10 0,23 19,7 30,-25 6,-19 18,-35 26,-35 13,0 19,-20 15,-44 -1,-5 1,-22 4,-37 7,-31 25,-40 25,-13 0,14 3,14 15,4 18,-15 19,-1 1,23 -16,21 -27,22 -20,2 4,-8 1,-15 -5,-15 -14,0 -14,27 0,35 6,4 0,19 -15,40 -15,19 -26,36 -26,39 0,3 -10,21 -21,41 -17,28 -24,33 -31,23 -6,-9 -7,-6 -3,9 3,12 1,24 -4,27 -5,4 -25,33 -43,66 -18,33 -38,60 -45,60 -24,0 -36,39 -24,85 8,31 11,493 11,1547 0,1473 0,1504 -20,1535 -23,39 -67,63 -114,63 -27,0 -44,-9 -76,-39 z m 177,-3113 c -3,-7 -5,-2 -5,12 0,14 2,19 5,13 2,-7 2,-19 0,-25 z m 65,-160 c -8,-8 -10,-2 -10,23 1,31 2,32 11,11 7,-16 7,-26 -1,-34 z m -215,12 c 11,-16 10,-18 -1,-14 -15,6 -30,34 -18,34 4,0 13,-9 19,-20 z m 239,-47 c -10,-10 -19,5 -10,18 6,11 8,11 12,0 2,-7 1,-15 -2,-18 z m -109,-99 c 1,-16 -1,-21 -3,-11 -3,9 -13,17 -22,17 -11,0 -13,-3 -5,-8 6,-4 15,-21 19,-37 4,-17 11,-36 17,-42 6,-9 6,-13 -2,-13 -6,0 -14,14 -17,30 -4,17 -10,30 -14,30 -14,0 -20,31 -9,51 14,28 34,19 36,-17 z m 168,-13 c 3,-5 1,-12 -5,-16 -5,-3 -10,1 -10,9 0,18 6,21 15,7 z"
       id="path22" />
    <path
       d="m 815,3630 c -11,-4 -31,-20 -45,-35 l -25,-27 V 2469 c 0,-604 -2,-1099 -5,-1099 -3,0 -153,-1 -335,-3 l -330,-2 -28,-24 c -15,-14 -27,-33 -27,-43 0,-10 -4,-18 -8,-18 -11,0 -8,-39 5,-70 6,-14 23,-36 38,-50 l 27,-25 h 411 c 389,0 414,1 440,19 21,14 25,21 15,27 -10,7 -9,9 3,9 9,0 21,8 25,17 5,10 10,538 12,1173 2,1058 1,1158 -14,1192 -25,56 -99,83 -159,58 z M 767,1448 c -2,-13 -4,-3 -4,22 0,25 2,35 4,23 2,-13 2,-33 0,-45 z m 23,-38 c 0,-5 -2,-10 -4,-10 -3,0 -8,5 -11,10 -3,6 -1,10 4,10 6,0 11,-4 11,-10 z M 55,1300 c 3,-5 1,-10 -4,-10 -6,0 -11,5 -11,10 0,6 2,10 4,10 3,0 8,-4 11,-10 z m 20,-30 c -3,-5 -12,-10 -18,-10 -7,0 -6,4 3,10 19,12 23,12 15,0 z m 45,-10 c 0,-5 -4,-10 -9,-10 -6,0 -13,5 -16,10 -3,6 1,10 9,10 9,0 16,-4 16,-10 z m 847,-22 c -3,-7 -5,-2 -5,12 0,14 2,19 5,13 2,-7 2,-19 0,-25 z M 49,1200 c 0,-10 -3,-8 -9,5 -12,27 -12,43 0,25 5,-8 9,-22 9,-30 z m 36,-20 c -3,-6 12,-13 35,-16 22,-4 40,-10 40,-15 0,-12 -73,1 -89,16 -14,14 -6,39 10,29 5,-3 7,-9 4,-14 z m 820,-17 c -27,-19 -105,-18 -105,3 0,12 10,15 45,13 24,-2 47,0 51,4 4,3 11,4 17,0 6,-3 2,-12 -8,-20 z"
       id="path24" />
    <path
       d="m 2858,3619 c -62,-46 -58,28 -58,-1230 0,-890 3,-1153 13,-1171 24,-46 44,-67 71,-78 17,-6 168,-10 412,-10 342,0 388,2 424,17 22,10 40,21 40,25 0,12 -22,9 -50,-7 -35,-20 -110,-20 -110,0 0,12 12,15 57,14 33,-1 58,2 60,8 2,6 13,8 25,6 26,-7 38,12 38,64 0,33 -7,49 -30,75 l -30,33 -336,5 -335,5 1,1085 c 0,852 -3,1090 -13,1110 -32,63 -126,89 -179,49 z m 852,-2299 c 0,-5 -4,-10 -9,-10 -6,0 -13,5 -16,10 -3,6 1,10 9,10 9,0 16,-4 16,-10 z m 30,-36 c 0,-8 -4,-12 -10,-9 -5,3 -10,10 -10,16 0,5 5,9 10,9 6,0 10,-7 10,-16 z m -45,-4 c 3,-5 1,-10 -4,-10 -6,0 -11,5 -11,10 0,6 2,10 4,10 3,0 8,-4 11,-10 z m 72,-37 c -3,-10 -5,-4 -5,12 0,17 2,24 5,18 2,-7 2,-21 0,-30 z m -890,-35 c -3,-7 -5,-2 -5,12 0,14 2,19 5,13 2,-7 2,-19 0,-25 z m -30,-10 c -3,-8 -6,-5 -6,6 -1,11 2,17 5,13 3,-3 4,-12 1,-19 z m 76,-33 c 20,-4 37,-12 37,-17 0,-6 -7,-7 -16,-4 -9,3 -26,6 -39,6 -15,0 -29,9 -36,23 -10,19 -10,20 2,10 8,-6 31,-14 52,-18 z"
       id="path26" />
    <path
       d="m 2531,1284 c 0,-11 3,-14 6,-6 3,7 2,16 -1,19 -3,4 -6,-2 -5,-13 z"
       id="path118" />
    <path
       d="m 2526,915 c 4,-8 10,-15 14,-15 4,0 10,7 14,15 4,10 -1,15 -14,15 -13,0 -18,-5 -14,-15 z"
       id="path120" />
    <path
       d="m 987,845 c -3,-16 0,-24 7,-22 14,4 21,47 8,47 -5,0 -12,-11 -15,-25 z"
       id="path122" />
    <path
       d="m 2776,858 c 4,-7 18,-27 31,-44 13,-17 23,-43 23,-57 0,-20 5,-27 19,-27 20,0 45,-23 35,-33 -10,-9 7,-48 18,-41 7,4 6,9 -2,14 -7,4 -10,15 -7,23 3,8 -5,25 -19,38 -13,12 -24,29 -24,37 0,8 -11,30 -25,48 -14,18 -25,37 -25,43 0,6 -7,11 -16,11 -9,0 -12,-5 -8,-12 z"
       id="path124" />
    <path
       d="m 936,775 c -27,-43 -28,-65 -3,-65 8,0 7,3 -2,9 -7,5 -10,14 -6,21 6,9 10,9 17,-1 6,-10 7,-7 3,10 -5,14 -3,21 3,17 8,-5 25,44 18,51 -1,1 -14,-18 -30,-42 z"
       id="path126" />
    <path
       d="m 2580,771 c 0,-21 58,-111 71,-111 15,0 10,28 -7,34 -8,3 -12,10 -9,16 4,6 -1,7 -11,3 -14,-5 -15,-3 -5,16 7,12 10,27 7,34 -2,7 -5,4 -5,-5 -1,-25 -21,-23 -21,2 0,11 -4,20 -10,20 -5,0 -10,-4 -10,-9 z"
       id="path128" />
    <path
       d="m 2680,701 c 0,-6 5,-13 10,-16 6,-3 10,1 10,9 0,9 -4,16 -10,16 -5,0 -10,-4 -10,-9 z"
       id="path130" />
    <path
       d="m 855,643 c -11,-21 -24,-41 -29,-44 -4,-4 -6,-13 -3,-20 3,-9 10,-2 18,19 8,18 18,31 24,28 5,-2 10,10 11,25 1,16 1,29 0,29 -1,0 -10,-17 -21,-37 z"
       id="path132" />
    <path
       d="m 2924,642 c 3,-6 -2,-12 -11,-14 -12,-2 -14,-6 -7,-11 7,-4 17,0 23,7 9,11 9,16 0,22 -7,4 -9,3 -5,-4 z"
       id="path134" />
    <path
       d="m 1115,629 c -4,-6 -5,-12 -2,-15 2,-3 7,2 10,11 7,17 1,20 -8,4 z"
       id="path136" />
    <path
       d="m 2675,620 c 9,-30 13,-35 21,-27 3,3 -2,16 -11,29 l -17,23 z"
       id="path138" />
    <path
       d="m 1040,616 c 0,-16 18,-31 27,-22 3,3 -2,12 -11,21 -14,14 -16,14 -16,1 z"
       id="path140" />
    <path
       d="m 1077,579 c -10,-11 -16,-24 -13,-27 6,-6 35,27 36,41 0,11 -4,9 -23,-14 z"
       id="path142" />
    <path
       d="m 2947,593 c -4,-6 0,-16 8,-23 8,-7 12,-17 8,-23 -3,-6 -1,-7 5,-3 15,9 15,18 -1,41 -9,11 -16,14 -20,8 z"
       id="path144" />
    <path
       d="m 2711,563 c -1,-12 4,-25 9,-28 12,-7 12,2 0,30 -8,19 -9,19 -9,-2 z"
       id="path146" />
    <path
       d="m 771,510 c -17,-28 -31,-53 -31,-56 0,-3 -7,-12 -15,-21 -9,-8 -14,-18 -11,-21 7,-6 45,39 46,53 0,6 5,17 10,25 9,13 11,13 21,0 8,-12 9,-10 4,7 -3,12 -1,31 5,43 21,40 1,19 -29,-30 z"
       id="path148" />
    <path
       d="m 2908,553 c 7,-3 16,-2 19,1 4,3 -2,6 -13,5 -11,0 -14,-3 -6,-6 z"
       id="path150" />
    <path
       d="m 1046,524 c -9,-24 -2,-26 12,-4 7,11 8,20 3,20 -5,0 -12,-7 -15,-16 z"
       id="path152" />
    <path
       d="m 2752,524 c -10,-11 -10,-18 0,-34 7,-11 17,-20 22,-20 6,0 5,5 -2,12 -7,7 -12,19 -12,27 0,11 4,11 19,-3 19,-17 19,-17 14,2 -6,26 -25,33 -41,16 z"
       id="path154" />
    <path
       d="m 2987,533 c -4,-3 -2,-12 4,-19 6,-8 9,-21 5,-29 -3,-8 -1,-15 5,-15 17,0 21,28 6,49 -7,12 -17,18 -20,14 z"
       id="path156" />
    <path
       d="m 2965,500 c -3,-5 -1,-10 4,-10 6,0 11,5 11,10 0,6 -2,10 -4,10 -3,0 -8,-4 -11,-10 z"
       id="path158" />
    <path
       d="m 780,460 c 0,-5 5,-10 10,-10 6,0 10,5 10,10 0,6 -4,10 -10,10 -5,0 -10,-4 -10,-10 z"
       id="path160" />
    <path
       d="m 960,455 c 0,-8 2,-15 4,-15 2,0 6,7 10,15 3,8 1,15 -4,15 -6,0 -10,-7 -10,-15 z"
       id="path162" />
    <path
       d="m 993,442 c -17,-24 -44,-86 -31,-72 10,10 60,100 56,100 -2,0 -13,-12 -25,-28 z"
       id="path164" />
    <path
       d="m 3046,423 c -6,-14 -5,-15 5,-6 7,7 10,15 7,18 -3,3 -9,-2 -12,-12 z"
       id="path166" />
    <path
       d="m 780,423 c 0,-5 5,-15 10,-23 8,-12 10,-11 10,8 0,12 -4,22 -10,22 -5,0 -10,-3 -10,-7 z"
       id="path168" />
    <path
       d="m 697,393 c -11,-20 -19,-75 -9,-69 12,7 27,65 19,72 -3,3 -7,2 -10,-3 z"
       id="path170" />
    <path
       d="m 897,383 c -11,-10 -8,-53 3,-53 6,0 10,14 10,30 0,31 -2,35 -13,23 z"
       id="path172" />
    <path
       d="m 2825,380 c -3,-5 -2,-10 4,-10 5,0 13,5 16,10 3,6 2,10 -4,10 -5,0 -13,-4 -16,-10 z"
       id="path174" />
    <path
       d="m 3089,345 c -5,-50 -4,-63 7,-53 3,3 4,28 2,54 l -3,49 z"
       id="path176" />
    <path
       d="m 930,371 c 0,-5 -3,-18 -7,-28 -6,-16 -5,-16 10,-4 19,15 23,41 7,41 -5,0 -10,-4 -10,-9 z"
       id="path178" />
    <path
       d="m 2840,348 c 0,-10 4,-18 9,-18 5,0 13,-12 18,-27 8,-22 11,-24 16,-10 3,10 2,17 -4,17 -6,0 -8,8 -5,17 4,10 4,14 0,10 -4,-4 -13,1 -20,11 -13,16 -13,16 -14,0 z"
       id="path180" />
    <path
       d="m 3040,353 c 1,-14 30,-48 30,-34 0,7 -7,19 -15,27 -8,9 -15,12 -15,7 z"
       id="path182" />
    <path
       d="m 690,299 c 0,-8 7,-24 15,-35 18,-24 19,-7 0,26 -9,16 -14,19 -15,9 z"
       id="path184" />
    <path
       d="m 896,299 c 3,-6 3,-14 -2,-18 -5,-3 -14,-15 -20,-25 -13,-24 -58,-38 -99,-31 l -30,5 27,-11 c 46,-18 100,4 127,51 19,34 20,40 6,40 -9,0 -13,-5 -9,-11 z"
       id="path186" />
    <path
       d="m 2890,271 c 0,-13 26,-32 33,-24 8,7 -11,33 -24,33 -5,0 -9,-4 -9,-9 z"
       id="path188" />
    <path
       d="m 3050,250 c 0,-11 2,-20 5,-20 2,0 9,9 15,20 9,16 8,20 -5,20 -8,0 -15,-9 -15,-20 z"
       id="path190" />
    <path
       d="m 2945,230 c -3,-5 -1,-10 4,-10 6,0 11,5 11,10 0,6 -2,10 -4,10 -3,0 -8,-4 -11,-10 z"
       id="path192" />
    <path
       d="m 2980,220 c -12,-8 -12,-10 5,-9 11,0 29,4 40,9 18,8 18,9 -5,9 -14,0 -32,-4 -40,-9 z"
       id="path194" />
    <path
       d="m 1812,125 c 0,-16 2,-22 5,-12 2,9 2,23 0,30 -3,6 -5,-1 -5,-18 z"
       id="path196" />
    <path
       d="m 1806,55 c 4,-8 11,-15 16,-15 6,0 5,6 -2,15 -7,8 -14,15 -16,15 -2,0 -1,-7 2,-15 z"
       id="path198" />
    <path
       d="m 1905,61 c 19,-8 19,-9 -3,-14 -21,-4 -21,-5 0,-3 30,2 36,26 6,25 -21,0 -22,-1 -3,-8 z"
       id="path200" />
    <path
       d="m 1960,52 c 0,-17 -48,-30 -91,-26 l -44,4 44,-11 c 31,-8 51,-7 71,1 28,12 49,40 30,40 -6,0 -10,-4 -10,-8 z"
       id="path202" />
  </g>
</svg>
