<?xml version="1.0" standalone="no"?>
<!DOCTYPE svg PUBLIC "-//W3C//DTD SVG 20010904//EN"
 "http://www.w3.org/TR/2001/REC-SVG-20010904/DTD/svg10.dtd">
<svg version="1.0" xmlns="http://www.w3.org/2000/svg"
 width="577.000000pt" height="720.000000pt" viewBox="0 0 577.000000 720.000000"
 preserveAspectRatio="xMidYMid meet">

<g transform="translate(0.000000,720.000000) scale(0.100000,-0.100000)"
fill="#000000" stroke="none">
<path d="M2773 7159 c-99 -49 -162 -164 -148 -269 9 -63 59 -147 110 -182 87
-61 218 -60 304 2 50 37 97 117 106 181 14 104 -50 221 -149 269 -59 28 -165
28 -223 -1z m255 -95 c93 -65 54 -260 -61 -303 -70 -27 -102 -2 -50 38 50 40
73 81 73 133 0 26 -7 63 -16 82 -28 58 2 86 54 50z"/>
<path d="M1880 7163 c-206 -21 -344 -95 -826 -441 -395 -282 -610 -416 -858
-529 -89 -41 -165 -79 -171 -84 -15 -15 37 -56 88 -70 65 -18 221 -5 312 26
148 49 399 189 664 369 148 100 269 208 322 285 24 35 41 51 57 51 21 0 22 -4
22 -72 1 -181 74 -332 203 -419 77 -51 144 -70 259 -72 104 -2 118 -13 79 -63
-26 -34 -27 -85 -1 -142 31 -67 133 -163 220 -205 127 -62 220 -69 363 -25
l67 21 0 141 c0 194 -9 279 -27 271 -8 -3 -46 -10 -84 -16 -181 -28 -339 88
-339 249 0 46 3 50 74 121 99 99 121 143 121 246 -1 67 -5 89 -29 139 -41 84
-117 158 -189 185 -93 34 -209 46 -327 34z"/>
<path d="M3680 7160 c-147 -23 -246 -93 -306 -216 -24 -50 -28 -72 -29 -139 0
-103 22 -147 121 -246 71 -71 74 -75 74 -121 0 -161 -158 -277 -339 -249 -38
6 -76 13 -84 16 -18 8 -27 -77 -27 -271 l0 -141 68 -21 c142 -44 235 -37 362
25 87 42 189 138 220 205 26 57 25 108 -1 142 -39 50 -25 61 79 63 115 2 182
21 259 72 129 87 202 238 203 419 0 68 1 72 23 72 15 0 32 -16 56 -51 53 -77
174 -185 322 -285 265 -180 516 -320 664 -369 91 -31 247 -44 312 -26 51 14
103 55 88 70 -6 5 -82 43 -171 84 -248 113 -463 247 -858 529 -406 292 -574
392 -712 422 -90 20 -251 28 -324 16z"/>
<path d="M2720 6483 c0 -60 9 -457 20 -883 11 -426 20 -805 20 -841 l0 -67 65
-16 c60 -15 69 -15 125 1 l60 16 0 66 c0 36 9 415 20 841 11 426 20 823 20
883 l0 107 -165 0 -165 0 0 -107z"/>
<path d="M1343 6528 c-22 -18 -91 -76 -154 -129 -219 -184 -381 -293 -575
-389 -68 -34 -124 -67 -124 -74 0 -24 56 -38 147 -37 111 0 169 16 290 81 173
92 491 318 529 374 14 22 14 27 -2 58 -10 18 -25 58 -34 88 -10 30 -22 56 -27
57 -5 2 -28 -11 -50 -29z"/>
<path d="M4365 6548 c-2 -7 -9 -31 -16 -53 -6 -22 -20 -57 -31 -78 -18 -36
-18 -41 -4 -63 38 -56 356 -282 529 -374 121 -65 179 -81 290 -81 91 -1 147
13 147 37 0 7 -56 40 -124 74 -194 96 -356 205 -575 389 -209 176 -207 175
-216 149z"/>
<path d="M1400 6198 c-129 -122 -274 -233 -414 -316 -58 -35 -106 -67 -106
-71 0 -12 53 -21 124 -21 114 0 223 45 366 151 105 76 280 227 280 239 0 5
-14 17 -31 26 -17 8 -50 33 -73 54 l-41 38 -105 -100z"/>
<path d="M4234 6269 c-16 -17 -48 -42 -71 -56 -24 -14 -43 -29 -43 -33 0 -12
178 -165 280 -239 143 -106 252 -151 366 -151 71 0 124 9 124 21 0 4 -48 36
-106 71 -143 85 -270 182 -407 310 l-114 107 -29 -30z"/>
<path d="M1698 6123 c-48 -59 -236 -247 -300 -301 -38 -31 -68 -61 -68 -68 0
-30 106 -33 179 -5 149 56 391 280 391 361 0 5 -15 10 -32 10 -32 0 -80 10
-125 24 -17 5 -27 1 -45 -21z"/>
<path d="M3990 6134 c-25 -7 -62 -13 -82 -13 -21 -1 -38 -6 -38 -11 0 -81 242
-305 391 -361 73 -28 179 -25 179 5 0 7 -30 37 -67 68 -65 54 -253 242 -300
301 -13 15 -26 26 -30 26 -5 -1 -28 -7 -53 -15z"/>
<path d="M2266 5459 c-66 -16 -155 -70 -202 -123 -199 -220 -123 -510 191
-734 108 -77 330 -189 535 -272 85 -34 186 -78 224 -98 188 -98 284 -267 243
-425 -31 -119 -113 -213 -265 -308 l-91 -56 102 -57 c56 -31 125 -69 153 -86
l50 -29 106 79 c138 104 208 182 264 295 141 283 67 559 -206 769 -136 105
-270 166 -555 250 -253 75 -341 109 -441 171 -139 87 -211 200 -221 344 -9
127 8 159 58 105 88 -96 265 -83 377 28 35 34 42 48 40 73 -3 25 -11 34 -53
55 -43 21 -65 25 -160 27 -60 1 -127 -2 -149 -8z"/>
<path d="M3232 5456 c-105 -35 -119 -75 -49 -143 23 -23 65 -53 93 -67 94 -47
221 -30 283 38 50 54 67 22 58 -105 -16 -234 -185 -376 -583 -493 -65 -19
-112 -37 -104 -39 8 -3 46 -15 84 -27 37 -12 120 -49 184 -81 l116 -59 65 36
c305 167 475 410 432 619 -27 131 -114 239 -239 298 -61 28 -77 31 -182 34
-78 2 -129 -2 -158 -11z"/>
<path d="M2395 4411 c-272 -220 -341 -484 -201 -766 79 -158 179 -249 497
-451 317 -201 418 -286 466 -391 22 -47 25 -66 21 -127 -8 -123 -73 -220 -205
-307 l-73 -47 77 -48 c42 -26 112 -74 155 -107 l79 -59 47 42 c188 169 295
387 294 595 -1 139 -42 235 -146 343 -94 99 -181 159 -435 299 -324 179 -417
265 -458 420 -43 164 57 330 260 434 l85 43 -112 47 c-62 26 -153 65 -201 88
-48 22 -88 41 -89 41 0 -1 -28 -23 -61 -49z"/>
<path d="M2818 4248 l-47 -20 5 -97 c2 -53 7 -215 10 -361 l6 -265 47 -26 46
-26 46 26 47 26 6 265 c3 146 8 308 10 361 l5 97 -51 21 c-61 25 -70 25 -130
-1z"/>
<path d="M2495 3204 c-195 -147 -276 -281 -277 -459 -1 -114 27 -219 89 -337
96 -181 262 -328 547 -485 106 -58 160 -102 186 -154 43 -83 15 -176 -87 -288
l-56 -63 81 -81 81 -81 41 28 c83 55 199 176 231 241 88 180 49 380 -105 539
-74 76 -129 116 -318 235 -178 111 -234 160 -278 242 -26 50 -34 78 -38 136
-4 67 -2 79 27 138 33 67 107 143 202 207 27 18 48 35 48 38 0 7 -294 190
-305 190 -5 0 -36 -21 -69 -46z"/>
<path d="M2843 3021 l-40 -29 4 -138 c2 -77 6 -216 9 -311 l6 -172 31 -20 c30
-19 33 -19 60 -3 16 9 31 22 33 27 3 6 8 145 13 310 9 325 10 314 -47 347 -29
17 -30 17 -69 -11z"/>
<path d="M2514 2032 c-166 -204 -163 -440 8 -619 83 -86 178 -156 316 -234
280 -158 358 -264 332 -451 -6 -39 -13 -83 -16 -97 l-5 -26 26 30 c67 78 103
210 84 310 -20 109 -44 142 -239 330 -248 240 -310 322 -310 412 0 71 44 138
123 188 15 9 27 20 27 24 0 3 -26 20 -57 36 -32 17 -100 58 -150 92 l-93 62
-46 -57z"/>
<path d="M2857 1873 l-28 -14 7 -192 c6 -179 8 -194 28 -215 l22 -23 21 23
c19 21 21 40 27 215 l7 192 -28 15 c-25 12 -32 12 -56 -1z"/>
<path d="M2637 1163 c-106 -105 -148 -216 -127 -336 6 -32 16 -71 23 -85 16
-38 77 -135 82 -130 2 2 -2 44 -10 93 -18 111 -9 177 36 247 33 52 112 121
186 165 l44 25 -77 44 c-43 24 -80 44 -83 44 -4 0 -37 -30 -74 -67z"/>
<path d="M2862 1121 c-10 -6 -11 -95 -2 -477 6 -258 14 -507 17 -554 l7 -85 7
65 c4 36 13 285 19 554 8 396 8 491 -2 498 -16 10 -30 10 -46 -1z"/>
</g>
</svg>
